<svg height="512pt" viewBox="0 0 512 512" width="512pt" xmlns="http://www.w3.org/2000/svg"><path d="m55.109375 95.195312h192.375v288.5625h-192.375zm0 0" fill="#e9eaef"/><path d="m55.109375 303.601562h192.375v80.15625h-192.375zm0 0" fill="#ee8972"/><path d="m55.109375 95.195312h32.0625v288.5625h-32.0625zm0 0" fill="#d4d5df"/><path d="m55.109375 303.601562h32.0625v80.15625h-32.0625zm0 0" fill="#ec7a61"/><path d="m55.109375 95.195312h192.375v80.15625h-192.375zm0 0" fill="#62cec2"/><path d="m55.109375 95.195312h32.0625v80.15625h-32.0625zm0 0" fill="#3ac2b3"/><path d="m199.390625 143.289062 48.09375-48.09375v288.5625h-48.09375zm0 0" fill="#b0e7e1"/><path d="m199.390625 143.289062h272.53125v288.5625h-272.53125zm0 0" fill="#f4f5f7"/><path d="m199.390625 143.289062h272.53125v80.15625h-272.53125zm0 0" fill="#89dad1"/><path d="m199.390625 351.695312h272.53125v80.15625h-272.53125zm0 0" fill="#f2a695"/><path d="m23.046875 55.117188h32.0625v448.878906h-32.0625zm0 0" fill="#d4d5df"/><path d="m71.140625 39.085938c0 17.707031-14.355469 32.0625-32.0625 32.0625-17.710937 0-32.0625-14.355469-32.0625-32.0625 0-17.707032 14.351563-32.0625 32.0625-32.0625 17.707031 0 32.0625 14.355468 32.0625 32.0625zm0 0" fill="#fab968"/><path d="m55.109375 55.117188c-17.710937 0-32.0625-14.355469-32.0625-32.0625 0-4.703126 1.019531-9.164063 2.839844-13.191407-11.125 5.03125-18.871094 16.21875-18.871094 29.222657 0 17.707031 14.351563 32.0625 32.0625 32.0625 13.003906 0 24.1875-7.746094 29.21875-18.871094-4.023437 1.816406-8.484375 2.839844-13.1875 2.839844zm0 0" fill="#f9a842"/><path d="m504.484375 191.375c4.152344 0 7.515625-3.367188 7.515625-7.515625s-3.363281-7.515625-7.515625-7.515625h-24.546875v-25.046875h24.546875c4.152344 0 7.515625-3.367187 7.515625-7.515625 0-4.152344-3.363281-7.515625-7.515625-7.515625h-248.984375v-40.578125c0-4.089844-3.433594-7.515625-7.515625-7.515625h-184.859375v-16.804687c9.71875-7.21875 16.03125-18.78125 16.03125-31.789063 0-21.824219-17.757812-39.578125-39.578125-39.578125-21.824219 0-39.578125 17.753906-39.578125 39.578125 0 13.007813 6.3125 24.570313 16.03125 31.789063v433.117187c0 4.152344 3.363281 7.515625 7.515625 7.515625 4.148437 0 7.515625-3.363281 7.515625-7.515625v-426.261719c2.742188.601563 5.589844.933594 8.515625.933594 2.921875 0 5.769531-.332031 8.515625-.933594v426.261719c0 4.152344 3.363281 7.515625 7.515625 7.515625 4.148437 0 7.515625-3.363281 7.515625-7.515625v-112.71875h129.25v40.578125c0 4.152344 3.363281 7.515625 7.515625 7.515625h304.59375c4.152344 0 7.515625-3.363281 7.515625-7.515625 0-4.148438-3.363281-7.515625-7.515625-7.515625h-24.546875v-25.046875h24.546875c4.152344 0 7.515625-3.363281 7.515625-7.515625 0-4.148437-3.363281-7.515625-7.515625-7.515625h-24.546875v-25.046875h24.546875c4.152344 0 7.515625-3.363281 7.515625-7.515625 0-4.148438-3.363281-7.515625-7.515625-7.515625h-24.546875v-25.046875h24.546875c4.152344 0 7.515625-3.367188 7.515625-7.515625s-3.363281-7.515625-7.515625-7.515625h-24.546875v-33.0625h24.546875c4.152344 0 7.515625-3.367188 7.515625-7.515625s-3.363281-7.515625-7.515625-7.515625h-24.546875v-25.046875h24.546875c4.152344 0 7.515625-3.367187 7.515625-7.515625s-3.363281-7.515625-7.515625-7.515625h-24.546875v-25.046875zm-489.453125-151.796875c0-13.535156 11.007812-24.546875 24.546875-24.546875 13.535156 0 24.546875 11.011719 24.546875 24.546875s-11.011719 24.546875-24.546875 24.546875c-13.539063 0-24.546875-11.011719-24.546875-24.546875zm449.875 176.84375h-48.59375c-4.152344 0-7.515625 3.367187-7.515625 7.515625s3.363281 7.515625 7.515625 7.515625h48.59375v113.21875h-257.5v-113.21875h173.335938c4.152343 0 7.515624-3.367187 7.515624-7.515625s-3.363281-7.515625-7.515624-7.515625h-173.335938v-65.125h257.5zm-401.78125-33.0625h129.25v113.21875h-129.25zm154.90625-47.09375 22.4375-22.4375v22.4375zm11.8125-33.0625-35.269531 35.265625c-1.398438 1.382812-2.199219 3.351562-2.199219 5.316406v24.542969h-129.25v-65.125zm-166.71875 273.53125v-65.125h129.25v65.125zm144.28125-17.03125h257.5v65.125h-257.5zm0 0"/></svg>