<svg height="512pt" viewBox="0 0 512 512" width="512pt" xmlns="http://www.w3.org/2000/svg"><path d="m231.453125 327.648438h48.09375v176.347656h-48.09375zm0 0" fill="#e9eaef"/><path d="m255.5 343.679688h24.046875v-16.03125h-48.09375v176.347656h24.046875zm0 0" fill="#d4d5df"/><path d="m343.671875 327.648438h-176.34375c-13.28125 0-24.046875-10.765626-24.046875-24.046876v-272.53125c0-13.28125 10.765625-24.046874 24.046875-24.046874h176.34375c13.28125 0 24.046875 10.765624 24.046875 24.046874v272.53125c0 13.28125-10.765625 24.046876-24.046875 24.046876zm0 0" fill="#62cec2"/><path d="m167.328125 287.570312v-280.546874c-13.28125 0-24.046875 10.765624-24.046875 24.046874v272.53125c0 13.28125 10.765625 24.046876 24.046875 24.046876h176.34375c13.28125 0 24.046875-10.765626 24.046875-24.046876h-184.359375c-8.855469 0-16.03125-7.175781-16.03125-16.03125zm0 0" fill="#3ac2b3"/><path d="m327.640625 223.445312c0 39.84375-32.300781 72.140626-72.140625 72.140626-39.84375 0-72.140625-32.296876-72.140625-72.140626 0-39.839843 32.296875-72.140624 72.140625-72.140624 39.839844 0 72.140625 32.300781 72.140625 72.140624zm0 0" fill="#a9a2d9"/><path d="m279.546875 279.554688c-39.84375 0-72.140625-32.296876-72.140625-72.140626 0-19.816406 7.992188-37.761718 20.929688-50.800781-26.375 10.730469-44.976563 36.601563-44.976563 66.832031 0 39.84375 32.296875 72.140626 72.140625 72.140626 20.023438 0 38.140625-8.164063 51.210938-21.339844-8.386719 3.414062-17.550782 5.308594-27.164063 5.308594zm0 0" fill="#8c83cc"/><path d="m295.578125 79.164062c0 22.136719-17.945313 40.078126-40.078125 40.078126-22.136719 0-40.078125-17.941407-40.078125-40.078126 0-22.132812 17.941406-40.078124 40.078125-40.078124 22.132812 0 40.078125 17.945312 40.078125 40.078124zm0 0" fill="#a9a2d9"/><path d="m271.53125 103.210938c-22.136719 0-40.078125-17.945313-40.078125-40.078126 0-6.945312 1.765625-13.476562 4.875-19.171874-12.457031 6.800781-20.90625 20.015624-20.90625 35.203124 0 22.136719 17.941406 40.078126 40.078125 40.078126 15.1875 0 28.402344-8.449219 35.203125-20.90625-5.695313 3.105468-12.226563 4.875-19.171875 4.875zm0 0" fill="#8c83cc"/><path d="m344.171875 0h-176.34375c-17.402344 0-31.5625 14.160156-31.5625 31.5625v272.53125c0 17.402344 14.160156 31.5625 31.5625 31.5625h56.609375v168.828125c0 4.152344 3.367188 7.515625 7.515625 7.515625s7.515625-3.363281 7.515625-7.515625v-168.828125h33.0625v168.828125c0 4.152344 3.363281 7.515625 7.515625 7.515625s7.515625-3.363281 7.515625-7.515625v-168.828125h56.609375c17.402344 0 31.5625-14.160156 31.5625-31.5625v-204.066406c0-4.148438-3.363281-7.511719-7.515625-7.511719s-7.515625 3.363281-7.515625 7.511719v204.066406c0 9.117188-7.414063 16.53125-16.53125 16.53125h-176.34375c-9.117187 0-16.53125-7.414062-16.53125-16.53125v-272.53125c0-9.117188 7.414063-16.53125 16.53125-16.53125h176.34375c9.117187 0 16.53125 7.414062 16.53125 16.53125v32.394531c0 4.152344 3.363281 7.515625 7.515625 7.515625s7.515625-3.363281 7.515625-7.515625v-32.394531c0-17.402344-14.160156-31.5625-31.5625-31.5625zm0 0"/><path d="m176.34375 223.9375c0 43.921875 35.734375 79.65625 79.65625 79.65625s79.65625-35.734375 79.65625-79.65625-35.734375-79.65625-79.65625-79.65625-79.65625 35.734375-79.65625 79.65625zm79.65625-64.625c35.632812 0 64.625 28.992188 64.625 64.625s-28.992188 64.625-64.625 64.625-64.625-28.992188-64.625-64.625 28.992188-64.625 64.625-64.625zm0 0"/><path d="m303.59375 79.65625c0-26.242188-21.351562-47.59375-47.59375-47.59375s-47.59375 21.351562-47.59375 47.59375 21.351562 47.59375 47.59375 47.59375 47.59375-21.351562 47.59375-47.59375zm-80.15625 0c0-17.957031 14.609375-32.5625 32.5625-32.5625 17.957031 0 32.5625 14.605469 32.5625 32.5625 0 17.953125-14.605469 32.5625-32.5625 32.5625-17.953125 0-32.5625-14.609375-32.5625-32.5625zm0 0"/><path d="m263.515625 223.9375c0 4.148438-3.367187 7.515625-7.515625 7.515625s-7.515625-3.367187-7.515625-7.515625 3.367187-7.515625 7.515625-7.515625 7.515625 3.367187 7.515625 7.515625zm0 0"/><path d="m288.0625 199.390625c0 4.148437-3.363281 7.511719-7.515625 7.511719-4.148437 0-7.511719-3.363282-7.511719-7.511719 0-4.152344 3.363282-7.515625 7.511719-7.515625 4.152344 0 7.515625 3.363281 7.515625 7.515625zm0 0"/><path d="m303.09375 184.359375c0 4.152344-3.367188 7.515625-7.515625 7.515625-4.152344 0-7.515625-3.363281-7.515625-7.515625 0-4.148437 3.363281-7.515625 7.515625-7.515625 4.148437 0 7.515625 3.367188 7.515625 7.515625zm0 0"/><path d="m304.09375 263.515625c0 4.148437-3.363281 7.515625-7.515625 7.515625-4.148437 0-7.511719-3.367188-7.511719-7.515625 0-4.152344 3.363282-7.515625 7.511719-7.515625 4.152344 0 7.515625 3.363281 7.515625 7.515625zm0 0"/><path d="m223.9375 184.359375c0 4.152344-3.363281 7.515625-7.515625 7.515625-4.148437 0-7.515625-3.363281-7.515625-7.515625 0-4.148437 3.367188-7.515625 7.515625-7.515625 4.152344 0 7.515625 3.367188 7.515625 7.515625zm0 0"/><path d="m223.9375 264.515625c0 4.152344-3.363281 7.515625-7.515625 7.515625-4.148437 0-7.515625-3.363281-7.515625-7.515625 0-4.148437 3.367188-7.511719 7.515625-7.511719 4.152344 0 7.515625 3.363282 7.515625 7.511719zm0 0"/><path d="m288.0625 248.484375c0 4.152344-3.363281 7.515625-7.515625 7.515625-4.148437 0-7.511719-3.363281-7.511719-7.515625 0-4.148437 3.363282-7.515625 7.511719-7.515625 4.152344 0 7.515625 3.367188 7.515625 7.515625zm0 0"/><path d="m239.96875 248.484375c0 4.152344-3.363281 7.515625-7.515625 7.515625-4.148437 0-7.515625-3.363281-7.515625-7.515625 0-4.148437 3.367188-7.515625 7.515625-7.515625 4.152344 0 7.515625 3.367188 7.515625 7.515625zm0 0"/><path d="m238.964844 199.390625c0 4.148437-3.363282 7.511719-7.511719 7.511719-4.152344 0-7.515625-3.363282-7.515625-7.511719 0-4.152344 3.363281-7.515625 7.515625-7.515625 4.148437 0 7.511719 3.363281 7.511719 7.515625zm0 0"/><path d="m295.078125 223.9375c0 4.148438-3.367187 7.515625-7.515625 7.515625-4.152344 0-7.515625-3.367187-7.515625-7.515625s3.363281-7.515625 7.515625-7.515625c4.148438 0 7.515625 3.367187 7.515625 7.515625zm0 0"/><path d="m311.109375 208.40625c0 4.152344-3.367187 7.515625-7.515625 7.515625-4.152344 0-7.515625-3.363281-7.515625-7.515625 0-4.148438 3.363281-7.515625 7.515625-7.515625 4.148438 0 7.515625 3.367187 7.515625 7.515625zm0 0"/><path d="m311.109375 240.46875c0 4.152344-3.367187 7.515625-7.515625 7.515625-4.152344 0-7.515625-3.363281-7.515625-7.515625 0-4.148438 3.363281-7.515625 7.515625-7.515625 4.148438 0 7.515625 3.367187 7.515625 7.515625zm0 0"/><path d="m215.921875 240.46875c0 4.152344-3.363281 7.515625-7.515625 7.515625-4.148438 0-7.515625-3.363281-7.515625-7.515625 0-4.148438 3.367187-7.515625 7.515625-7.515625 4.152344 0 7.515625 3.367187 7.515625 7.515625zm0 0"/><path d="m214.917969 207.40625c0 4.148438-3.363281 7.511719-7.511719 7.511719-4.152344 0-7.515625-3.363281-7.515625-7.511719 0-4.152344 3.363281-7.515625 7.515625-7.515625 4.148438 0 7.511719 3.363281 7.511719 7.515625zm0 0"/><path d="m280.046875 176.34375c0 4.152344-3.363281 7.515625-7.515625 7.515625-4.148438 0-7.511719-3.363281-7.511719-7.515625 0-4.148438 3.363281-7.515625 7.511719-7.515625 4.152344 0 7.515625 3.367187 7.515625 7.515625zm0 0"/><path d="m280.046875 271.53125c0 4.148438-3.363281 7.515625-7.515625 7.515625-4.148438 0-7.511719-3.367187-7.511719-7.515625 0-4.152344 3.363281-7.515625 7.511719-7.515625 4.152344 0 7.515625 3.363281 7.515625 7.515625zm0 0"/><path d="m246.980469 176.34375c0 4.152344-3.363281 7.515625-7.511719 7.515625-4.152344 0-7.515625-3.363281-7.515625-7.515625 0-4.148438 3.363281-7.515625 7.515625-7.515625 4.148438 0 7.511719 3.367187 7.511719 7.515625zm0 0"/><path d="m246.980469 271.53125c0 4.148438-3.363281 7.515625-7.511719 7.515625-4.152344 0-7.515625-3.367187-7.515625-7.515625 0-4.152344 3.363281-7.515625 7.515625-7.515625 4.148438 0 7.511719 3.363281 7.511719 7.515625zm0 0"/><path d="m231.953125 223.9375c0 4.148438-3.363281 7.515625-7.515625 7.515625-4.148438 0-7.515625-3.367187-7.515625-7.515625s3.367187-7.515625 7.515625-7.515625c4.152344 0 7.515625 3.367187 7.515625 7.515625zm0 0"/><path d="m263.515625 192.375c0 4.152344-3.367187 7.515625-7.515625 7.515625s-7.515625-3.363281-7.515625-7.515625c0-4.148438 3.367187-7.515625 7.515625-7.515625s7.515625 3.367187 7.515625 7.515625zm0 0"/><path d="m263.515625 255.5c0 4.148438-3.367187 7.515625-7.515625 7.515625s-7.515625-3.367187-7.515625-7.515625c0-4.152344 3.367187-7.515625 7.515625-7.515625s7.515625 3.363281 7.515625 7.515625zm0 0"/><path d="m474.582031 133.605469c-2.933593-2.933594-7.691406-2.933594-10.625 0-2.9375 2.933593-2.9375 7.691406 0 10.625 21.289063 21.292969 33.011719 49.597656 33.011719 79.707031s-11.722656 58.414062-33.011719 79.707031c-2.738281 2.734375-2.917969 7.253907-.402343 10.195313 2.8125 3.28125 7.972656 3.484375 11.027343.429687 24.128907-24.128906 37.417969-56.207031 37.417969-90.332031s-13.289062-66.203125-37.417969-90.332031zm0 0"/><path d="m446.242188 161.945312c-2.933594-2.9375-7.691407-2.9375-10.625 0-2.9375 2.933594-2.9375 7.691407 0 10.625 13.71875 13.722657 21.273437 31.964844 21.273437 51.367188s-7.554687 37.644531-21.273437 51.367188c-2.738282 2.734374-2.917969 7.253906-.398438 10.195312 2.808594 3.28125 7.96875 3.488281 11.027344.429688 16.554687-16.558594 25.675781-38.574219 25.675781-61.992188s-9.121094-45.433594-25.679687-61.992188zm0 0"/><path d="m407.277344 190.285156c-2.9375 2.933594-2.9375 7.691406 0 10.625 6.148437 6.152344 9.535156 14.328125 9.535156 23.027344s-3.386719 16.875-9.535156 23.027344c-2.738282 2.734375-2.917969 7.253906-.402344 10.195312 2.8125 3.28125 7.972656 3.484375 11.027344.429688 8.992187-8.988282 13.941406-20.941406 13.941406-33.652344s-4.949219-24.664062-13.941406-33.652344c-2.933594-2.933594-7.691406-2.933594-10.625 0zm0 0"/><path d="m15.03125 223.9375c0-30.109375 11.722656-58.414062 33.011719-79.707031 2.9375-2.933594 2.9375-7.691407 0-10.625-2.933594-2.933594-7.691407-2.933594-10.625 0-24.128907 24.128906-37.417969 56.207031-37.417969 90.332031s13.289062 66.203125 37.417969 90.332031c3.054687 3.058594 8.214843 2.851563 11.027343-.429687 2.515626-2.941406 2.335938-7.460938-.402343-10.195313-21.289063-21.292969-33.011719-49.597656-33.011719-79.707031zm0 0"/><path d="m76.382812 161.945312c-2.933593-2.9375-7.691406-2.9375-10.625 0-16.558593 16.558594-25.679687 38.574219-25.679687 61.992188s9.121094 45.433594 25.679687 61.992188c3.054688 3.058593 8.214844 2.851562 11.023438-.429688 2.519531-2.941406 2.339844-7.460938-.398438-10.195312-13.71875-13.722657-21.273437-31.964844-21.273437-51.367188s7.554687-37.644531 21.273437-51.367188c2.9375-2.933593 2.9375-7.691406 0-10.625zm0 0"/><path d="m95.1875 223.9375c0-8.699219 3.386719-16.875 9.535156-23.023438 2.9375-2.9375 2.9375-7.695312 0-10.628906-2.933594-2.933594-7.691406-2.933594-10.625 0-8.992187 8.988282-13.941406 20.9375-13.941406 33.652344 0 12.710938 4.949219 24.664062 13.941406 33.652344 3.054688 3.058594 8.214844 2.851562 11.027344-.429688 2.515625-2.941406 2.335938-7.460937-.402344-10.195312-6.148437-6.152344-9.535156-14.328125-9.535156-23.027344zm0 0"/></svg>